<?xml version="1.0"?>
<svg xmlns="http://www.w3.org/2000/svg" xmlns:xlink="http://www.w3.org/1999/xlink" xmlns:svgjs="http://svgjs.com/svgjs" version="1.1" width="512" height="512" x="0" y="0" viewBox="0 0 609.62 609.62" style="enable-background:new 0 0 512 512" xml:space="preserve" class=""><g><g xmlns="http://www.w3.org/2000/svg"><g id="Page-1_64_"><g id="_x30_65---Pouring-Concrete"><path id="Shape_170_" d="m491.049 246.3c-105.668-90.722-246.845-87.785-287.842-84.737v-141.229c0-11.223-9.098-20.321-20.321-20.321h-30.481c-12.871.053-24.321 8.186-28.612 20.321h-103.472c-11.223 0-20.321 9.097-20.321 20.32v345.451c0 11.223 9.098 20.321 20.321 20.321h103.473c4.29 12.135 15.741 20.267 28.612 20.321h30.481c11.223 0 20.321-9.098 20.321-20.321v-7.407c1.971.671 3.902 1.27 5.974 2.154 12.707 5.291 23.544 14.256 31.121 25.746 11.425 19.784 15.813 42.856 12.446 65.453-.817 6.923-2.114 13.781-3.881 20.524-2.134 8.088-3.619 16.334-4.44 24.659-.852 12.957 3.791 25.674 12.792 35.033 14.186 15.205 36.081 20.468 55.628 13.371 8.864 14.134 24.143 22.972 40.814 23.611 16.672.638 32.581-7.006 42.5-20.42 18.462 13.375 43.477 13.185 61.734-.467 11.269 13.352 27.881 21.016 45.353 20.922s34.001-7.936 45.125-21.409c3.432.742 6.933 1.117 10.445 1.118 13.507-.03 26.448-5.425 35.976-14.998s14.861-22.541 14.826-36.047c-3.15-128.886-43.04-227.116-118.572-291.969zm-470.728-205.646h101.603v20.321h-71.122c-5.611 0-10.16 4.549-10.16 10.16s4.549 10.16 10.16 10.16h71.122v304.81h-101.603zm132.084 365.772c-5.611 0-10.16-4.549-10.16-10.16v-365.772c0-5.611 4.549-10.16 10.16-10.16h30.481v386.093h-30.481zm395.369 160.402c-4.787-1.879-10.223.115-12.66 4.643-6.706 11.333-19.013 18.158-32.178 17.842-14.399.493-27.66-7.793-33.529-20.951-1.357-3.487-4.521-5.947-8.235-6.401s-7.378 1.17-9.535 4.227c-5.698 8.115-14.987 12.951-24.903 12.965-9.824.019-19.041-4.751-24.7-12.782-2.209-3.073-5.942-4.663-9.688-4.127s-6.884 3.109-8.143 6.678c-4.206 12.22-15.715 20.416-28.639 20.396-12.924-.021-24.406-8.253-28.574-20.487-1.04-2.965-3.394-5.283-6.375-6.276-2.981-.994-6.254-.552-8.866 1.196-5.044 3.426-11.003 5.253-17.1 5.243-8.593-.193-16.734-3.889-22.536-10.231-5.131-5.229-7.827-12.375-7.427-19.691.75-7.256 2.072-14.441 3.952-21.489 1.999-7.677 3.452-15.486 4.349-23.369 3.845-27.156-1.677-54.811-15.657-78.407-9.774-14.859-23.758-26.466-40.164-33.336-4.522-1.917-9.191-3.47-13.96-4.643v-31.497c48.171 6.868 88.906 39.154 106.592 84.483 1.437 3.334 4.544 5.648 8.151 6.07 3.606.422 7.164-1.112 9.332-4.023 2.169-2.912 2.619-6.76 1.182-10.094-20.819-52.829-68.892-90.018-125.257-96.899v-92.317c36.882.183 172.726 7.854 256.366 108.269 2.327 2.788 5.964 4.123 9.542 3.501 3.578-.621 6.552-3.104 7.803-6.513s.588-7.226-1.739-10.014c-90.173-108.208-231.808-115.808-271.972-115.665v-31.101c36.008-2.591 174.697-6.177 274.736 79.809 70.899 60.942 108.36 154.112 111.357 276.676-.064 10.032-5.05 19.393-13.339 25.045-8.288 5.65-18.823 6.873-28.186 3.27z" fill="#cecece" data-original="#000000" style=""/><path id="Shape_169_" d="m329.713 457.441c-2.639.556-4.949 2.139-6.42 4.399s-1.984 5.013-1.424 7.651c1.331 6.249 2.449 12.833 3.353 19.569.822 5.49 5.898 9.304 11.4 8.566s9.393-5.756 8.738-11.269c-.965-7.234-2.184-14.326-3.607-21.073-.556-2.637-2.137-4.945-4.395-6.416-2.258-1.469-5.008-1.983-7.645-1.427z" fill="#cecece" data-original="#000000" style=""/><path id="Shape_168_" d="m275.67 284.594c-3.64-.568-7.302.88-9.57 3.782-2.269 2.902-2.788 6.805-1.359 10.201s4.585 5.75 8.247 6.155c1.453.203 145.445 21.123 174.24 174.697.904 4.803 5.1 8.282 9.988 8.281.631-.001 1.26-.062 1.88-.183 2.651-.493 4.997-2.02 6.521-4.244 1.525-2.224 2.103-4.963 1.607-7.613-31.498-167.799-189.948-190.873-191.554-191.076z" fill="#cecece" data-original="#000000" style=""/><path id="Shape_167_" d="m538.498 538.511c5.611 0 10.16-4.549 10.16-10.16-.308-10.83-1.484-21.617-3.515-32.259-.527-3.673-3.015-6.767-6.49-8.07s-7.384-.608-10.196 1.813-4.081 6.183-3.31 9.813c1.796 9.472 2.863 19.068 3.19 28.703.001 5.611 4.549 10.16 10.161 10.16z" fill="#cecece" data-original="#000000" style=""/></g></g></g></g></svg>
