<?xml version="1.0"?>
<svg xmlns="http://www.w3.org/2000/svg" xmlns:xlink="http://www.w3.org/1999/xlink" xmlns:svgjs="http://svgjs.com/svgjs" version="1.1" width="512" height="512" x="0" y="0" viewBox="0 0 512 512" style="enable-background:new 0 0 512 512" xml:space="preserve" class=""><g><g xmlns="http://www.w3.org/2000/svg"><path d="m421.5 165.5c0-91.257-74.243-165.5-165.5-165.5-46.544 0-91.201 19.769-122.521 54.237-2.785 3.065-2.559 7.81.507 10.595s7.81 2.559 10.595-.507c28.482-31.346 69.094-49.325 111.419-49.325 82.986 0 150.5 67.514 150.5 150.5-1.177 47.641-25.39 95.776-61.779 128.476-2.95 2.907-2.984 7.656-.077 10.606 2.316 2.171 6.705 3.454 10.606.077 39.106-35.196 64.951-87.057 66.25-139.159z" fill="#cbcbcb" data-original="#000000" style="" class=""/><path d="m330.883 319.299c-3.198-2.63-7.926-2.172-10.557 1.027-14.548 17.687-22.692 32.704-24.771 45.674h-79.091c-3.165-19.968-20.636-44.684-54.297-76.997-28.156-27.029-46.799-61.123-53.911-98.595-6.953-34.088-.013-68.634 16.548-98.705 2.034-3.608.759-8.183-2.85-10.217-3.607-2.035-8.183-.758-10.217 2.85-18.292 33.203-25.733 70.223-18.218 108.869 7.696 40.551 27.843 77.419 58.261 106.618 29.887 28.691 46.55 51.313 49.671 67.388-8.399 2.927-14.451 10.905-14.451 20.289v70c0 14.914 11.937 27.085 26.758 27.481l2.353 12.706c1.537 8.293 8.773 14.312 17.208 14.312h45.363c8.435 0 15.671-6.02 17.208-14.313l2.353-12.705c14.82-.396 26.757-12.567 26.757-27.481v-70c0-9.375-6.04-17.345-14.426-20.28 1.59-7.858 6.94-19.864 21.336-37.365 2.632-3.199 2.172-7.925-1.027-10.556zm-128.883 124.701v-11h23.015c4.143 0 7.5-3.357 7.5-7.5s-3.357-7.5-7.5-7.5h-23.015v-11h108v11h-49.819c-4.143 0-7.5 3.357-7.5 7.5s3.357 7.5 7.5 7.5h49.819v11zm108-52h-108v-4.5c0-3.584 2.916-6.5 6.5-6.5h95c3.584 0 6.5 2.916 6.5 6.5zm-31.318 105h-45.363c-1.205 0-2.239-.86-2.458-2.044l-1.844-9.956h53.967l-1.844 9.955c-.219 1.185-1.253 2.045-2.458 2.045zm18.818-27h-83c-6.384 0-11.656-4.813-12.401-11h107.802c-.745 6.187-6.017 11-12.401 11z" fill="#cbcbcb" data-original="#000000" style="" class=""/><path d="m288.536 117.898c-24.418-17.63-62.87-11.302-79.917 14.845-13.904 19.734-13.519 48.913 2.514 68.487 2.596 3.229 7.313 3.74 10.545 1.148 3.229-2.595 3.742-7.315 1.148-10.545-11.058-13.297-12.687-35.379-1.842-50.6 12.115-18.476 40.038-24.534 59.061-10.971 18.476 12.114 24.533 40.04 10.971 59.061-9.139 13.334-25.597 20.681-42.56 17.783-4.069-.744-7.98 1.963-8.72 6.038-.74 4.076 1.963 7.979 6.038 8.72 20.458 4.15 45.499-5.438 57.606-24.05 17.633-24.419 11.302-62.867-14.844-79.916z" fill="#cbcbcb" data-original="#000000" style="" class=""/><path d="m357.293 222.054c4.648 1.247 11.512-1.528 12.885-8.099l9.669-42.391c1.337-5.078-1.525-11.515-8.098-12.888l-16.39-3.738c-.81-7.781-2.529-15.416-5.128-22.774l13.488-10.76c4.639-3.699 5.403-10.483 1.703-15.123l-27.115-33.991c-3.699-4.637-10.485-5.402-15.123-1.703l-13.363 10.66c-6.516-4.181-13.478-7.581-20.765-10.142v-17.473c0-5.934-4.828-10.761-10.762-10.761h-43.481c-5.934 0-10.762 4.827-10.762 10.761v17.096c-7.316 2.478-14.321 5.801-20.893 9.915l-13.66-10.893c-4.641-3.701-11.423-2.935-15.124 1.704l-27.108 33.996c-3.7 4.639-2.936 11.423 1.704 15.123l13.208 10.532c-2.684 7.329-4.49 14.942-5.388 22.705l-16.761 3.826c-4.886 1.378-9.635 5.492-8.098 12.887l9.677 42.39c1.319 5.785 7.104 9.425 12.886 8.098l16.228-3.704c4.103 6.715 8.979 12.919 14.543 18.506l-7.366 15.299c-2.574 5.347-.318 11.791 5.027 14.364l39.178 18.863c5.348 2.575 11.79.317 14.364-5.028l7.146-14.84c7.905.997 15.737 1.046 23.67.135l7.309 15.172c2.238 4.562 7.163 7.933 14.366 5.026l39.174-18.87c5.345-2.574 7.6-9.019 5.024-14.364l-7.211-14.969c5.64-5.532 10.588-11.678 14.761-18.331zm-27.937-13.996c-4.256 7.278-9.585 13.895-15.839 19.664-3.517 3.246-4.493 8.309-2.428 12.603l6.713 13.936-31.536 15.19-6.801-14.117c-1.817-3.772-5.587-6.086-9.689-6.086-7.543.923-17.559 1.555-26.99-.044-4.63-.732-9.298 1.717-11.343 5.966l-6.652 13.815-31.539-15.186 6.853-14.23c2.04-4.238 1.102-9.267-2.336-12.515-6.167-5.825-11.415-12.506-15.596-19.854-2.378-4.182-7.111-6.274-11.766-5.207l-15.118 3.45-7.791-34.126 15.608-3.562c4.579-1.048 7.925-4.913 8.324-9.622.708-8.376 2.654-16.568 5.784-24.349 1.8-4.47.492-9.48-3.256-12.47l-12.323-9.827 21.825-27.367 12.73 10.151c3.679 2.938 8.796 3.142 12.73.509 6.946-4.651 14.503-8.236 22.46-10.654 4.588-1.395 7.67-5.535 7.67-10.304v-15.951h35.005v16.292c0 4.711 3.034 8.836 7.548 10.266 7.93 2.513 15.439 6.183 22.322 10.908 3.949 2.712 9.105 2.536 12.832-.436l12.466-9.944 21.829 27.364-12.576 10.032c-3.699 2.951-5.025 7.913-3.301 12.345 3.037 7.814 4.887 16.033 5.497 24.431.349 4.771 3.699 8.688 8.338 9.747l15.27 3.482-7.784 34.128-15.438-3.521c-4.602-1.05-9.306.995-11.702 5.093z" fill="#cbcbcb" data-original="#000000" style="" class=""/><path d="m434.5 75c15.163 0 27.5-12.337 27.5-27.5s-12.337-27.5-27.5-27.5-27.5 12.337-27.5 27.5 12.337 27.5 27.5 27.5zm0-40c6.893 0 12.5 5.607 12.5 12.5s-5.607 12.5-12.5 12.5-12.5-5.607-12.5-12.5 5.607-12.5 12.5-12.5z" fill="#cbcbcb" data-original="#000000" style="" class=""/><path d="m434.5 256c-15.163 0-27.5 12.337-27.5 27.5s12.337 27.5 27.5 27.5 27.5-12.337 27.5-27.5-12.337-27.5-27.5-27.5zm0 40c-6.893 0-12.5-5.607-12.5-12.5s5.607-12.5 12.5-12.5 12.5 5.607 12.5 12.5-5.607 12.5-12.5 12.5z" fill="#cbcbcb" data-original="#000000" style="" class=""/><path d="m477.25 130.75c-19.161 0-34.75 15.589-34.75 34.75s15.589 34.75 34.75 34.75 34.75-15.589 34.75-34.75-15.589-34.75-34.75-34.75zm0 54.5c-10.891 0-19.75-8.859-19.75-19.75s8.859-19.75 19.75-19.75 19.75 8.859 19.75 19.75-8.859 19.75-19.75 19.75z" fill="#cbcbcb" data-original="#000000" style="" class=""/><path d="m77.5 75c15.163 0 27.5-12.337 27.5-27.5s-12.337-27.5-27.5-27.5-27.5 12.337-27.5 27.5 12.337 27.5 27.5 27.5zm0-40c6.893 0 12.5 5.607 12.5 12.5s-5.607 12.5-12.5 12.5-12.5-5.607-12.5-12.5 5.607-12.5 12.5-12.5z" fill="#cbcbcb" data-original="#000000" style="" class=""/><path d="m77.5 256c-15.163 0-27.5 12.337-27.5 27.5s12.337 27.5 27.5 27.5 27.5-12.337 27.5-27.5-12.337-27.5-27.5-27.5zm0 40c-6.893 0-12.5-5.607-12.5-12.5s5.607-12.5 12.5-12.5 12.5 5.607 12.5 12.5-5.607 12.5-12.5 12.5z" fill="#cbcbcb" data-original="#000000" style="" class=""/><path d="m69.5 165.5c0-19.161-15.589-34.75-34.75-34.75s-34.75 15.589-34.75 34.75 15.589 34.75 34.75 34.75 34.75-15.589 34.75-34.75zm-34.75 19.75c-10.891 0-19.75-8.859-19.75-19.75s8.859-19.75 19.75-19.75 19.75 8.859 19.75 19.75-8.859 19.75-19.75 19.75z" fill="#cbcbcb" data-original="#000000" style="" class=""/></g></g></svg>
