<svg version="1.2" baseProfile="tiny-ps" xmlns="http://www.w3.org/2000/svg" viewBox="0 0 512 447" width="512" height="447">
	<title>tape-svg</title>
	<style>
		tspan { white-space:pre }
		.shp0 { fill: #cecece } 
	</style>
	<g id="Layer">
		<path id="Layer" class="shp0" d="M369 255.68C369 213.7 354.52 172.61 328.24 139.99L316.56 149.4C341.05 179.8 354 216.55 354 255.68C354 349.14 277.96 425.18 184.5 425.18C91.04 425.18 15 349.14 15 255.68C15 162.21 91.04 86.18 184.5 86.18C231.22 86.18 274.75 104.79 307.06 138.58L317.9 128.21C282.73 91.43 235.36 71.17 184.5 71.17C82.77 71.17 0 153.94 0 255.67C0 357.41 82.77 440.17 184.5 440.17C286.23 440.17 369 357.41 369 255.67L369 255.68Z" />
		<path id="Layer" class="shp0" d="M120.23 348.76C139.19 361.89 161.41 368.83 184.5 368.83C246.89 368.83 297.65 318.07 297.65 255.67C297.65 193.28 246.89 142.51 184.5 142.51C122.1 142.51 71.34 193.28 71.34 255.67C71.34 287.03 84.57 317.28 107.63 338.65L117.83 327.64C97.82 309.1 86.34 282.87 86.34 255.67C86.34 201.55 130.37 157.51 184.5 157.51C238.62 157.51 282.65 201.55 282.65 255.67C282.65 309.8 238.62 353.83 184.5 353.83C164.48 353.83 145.21 347.82 128.77 336.43L120.23 348.76Z" />
		<path id="Layer" fill-rule="evenodd" class="shp0" d="M235.3 255.68C235.3 283.69 212.51 306.48 184.5 306.48C156.48 306.48 133.69 283.69 133.69 255.68C133.69 227.66 156.48 204.87 184.5 204.87C212.51 204.87 235.3 227.66 235.3 255.68ZM148.69 255.68C148.69 275.42 164.75 291.48 184.5 291.48C204.24 291.48 220.3 275.42 220.3 255.68C220.3 235.93 204.24 219.87 184.5 219.87C164.75 219.87 148.69 235.93 148.69 255.68Z" />
		<path id="Layer" class="shp0" d="M511.35 382.06L502.6 365.18L511.35 348.3L498.71 323.93L377.08 324.08L377.1 339.08L489.59 338.94L494.45 348.31L485.7 365.19L494.45 382.06L485.7 398.92L494.45 415.8L489.59 425.18L291.73 425.18L291.73 440.18L498.71 440.18L511.35 415.81L502.6 398.93L511.35 382.06Z" />
		<path id="Layer" class="shp0" d="M267.65 255.68L252.65 255.68C252.65 237.7 245.68 220.72 233.03 207.87L243.71 197.35C259.15 213.02 267.65 233.73 267.65 255.68L267.65 255.68ZM222.66 199.23C218.93 196.7 214.94 194.54 210.8 192.8L216.61 178.97C221.66 181.09 226.53 183.73 231.08 186.82L222.66 199.23ZM197.92 188.85C193.53 187.97 189.01 187.52 184.5 187.52L184.5 172.52C190 172.52 195.51 173.07 200.87 174.14L197.92 188.85Z" />
	</g>
</svg>