<?xml version="1.0"?>
<svg xmlns="http://www.w3.org/2000/svg" xmlns:xlink="http://www.w3.org/1999/xlink" xmlns:svgjs="http://svgjs.com/svgjs" version="1.1" width="512" height="512" x="0" y="0" viewBox="0 0 60 60" style="enable-background:new 0 0 512 512" xml:space="preserve" class=""><g><g xmlns="http://www.w3.org/2000/svg" id="Page-1" fill="none" fill-rule="evenodd"><g id="020---Ground-Surveyor" fill="rgb(0,0,0)" fill-rule="nonzero"><path id="Shape" d="m58 28h-14v-4c0-1.1045695-.8954305-2-2-2h-1v-21c0-.55228475-.4477153-1-1-1s-1 .44771525-1 1v2h-9.667c-1.2116345-.00209349-2.3049192.72676297-2.769 1.846l-4.231 10.154h-6.333v-12c0-1.1045695-.8954305-2-2-2h-7.36c-.78486315.00092941-1.4966367.46084462-1.82 1.176l-1.558 3.424v.012l-3.172 6.974v.012c-.05757475.1263015-.088225.263206-.09.402v8c0 1.6568542 1.34314575 3 3 3h.1c-.2890133 1.4044182.04875718 2.8650473.925 4h-2.025c-1.0958493-.0072097-1.99064785.8741669-2 1.97v28.06c.00935215 1.0958331.9041507 1.9772097 2 1.97h56c1.0958493.0072097 1.9906479-.8741669 2-1.97v-28.06c-.0093521-1.0958331-.9041507-1.9772097-2-1.97zm0 23.968c-.7848059-.0366016-1.5658869-.1305185-2.337-.281l2.337-3.049zm-6.6-1.9 6.227-8.118c.124.007.245.017.373.022v3.378l-4.409 5.75c-.7565443-.283376-1.4892133-.6268042-2.191-1.027zm-7.4-13.529c1.1252995.3170336 2.2064007.7739315 3.218 1.36l-3.218 4.195zm0 8.84 4.943-6.443c.66.409 1.331.819 2.055 1.2l-5.274 6.881c-.5630466-.2111035-1.1388584-.3864522-1.724-.525zm8.868-4.393c.7973389.2978109 1.6186571.5269771 2.455.685l-5.648 7.365c-.656-.405-1.332-.812-2.063-1.193zm5.132-11.016v9.991c-2.9304715-.1289073-5.7604264-1.1061554-8.146-2.813-1.7819064-1.2233509-3.7626401-2.1281138-5.854-2.674v-4.474zm-16-.97v21.58l-2.006 2-1.994-1.99v-26.59h4zm-29.156 21.139 6.273-8.175c.39.021.79.036 1.213.036.634 0 1.229-.025 1.789-.071l-7.071 9.218c-.7607306-.2758114-1.4978177-.6129184-2.204-1.008zm-10.844-14.1c.81311758.035336 1.62241249.1319433 2.421.289l-2.421 3.156zm.455 10.015c-.152-.011-.3-.024-.455-.031v-3.254l4.49-5.853c.75241344.2930785 1.48093605.6441334 2.179 1.05zm7.938-7.049c.659.408 1.33.815 2.057 1.193l-5.25 6.855c-.79436227-.3022368-1.61297495-.5364129-2.447-.7zm3.938 2.028c.802635.2918239 1.6286027.514959 2.469.667l-5.683 7.4c-.652-.406-1.325-.817-2.052-1.2zm10.68.412c1.5886243-.433 3.1048713-1.0974531 4.5-1.972l-9.6 12.514c-.9309315-.0137497-1.8591164-.1047286-2.775-.272zm8.89-4.412c.6799277-.2786398 1.3825028-.4984454 2.1-.657v1.8l-9.762 12.731c-1.1861473.4921385-2.4363873.8126956-3.713.952zm2.099 4.434v4.87c-.179.036-.357.072-.551.118-1.6906197.3948912-3.3064049 1.0601151-4.785 1.97zm3-19.467h-1c-1.1045695 0-2 .8954305-2 2v4h-6.012c.7840654-1.0336025 1.1335498-2.3325077.974-3.62-.017-.132-.061-.252-.087-.38h.125c1.6568542 0 3-1.3431458 3-3v-16h5zm-26.1 2h8.222c-.3128391 1.3999363.014928 2.8664558.894 4h-10.042c.8762428-1.1349527 1.2140133-2.5955818.925-4zm16.079.628c.2052651 1.6439037-.9608351 3.1430068-2.6047064 3.3485314-1.6438713.2055247-3.1431585-.9603389-3.3489426-2.6041777-.2057842-1.6438388.9598427-3.14331 2.603649-3.3493537.1230617-.0154422.2469733-.0231241.371-.023 1.512441.0020826 2.7878141 1.127563 2.978 2.628zm-.569-19.013c.1553781-.37247028.5194204-.61503367.923-.615h2.667v10h-7.5zm-5.41 11.385h9v4c0 .5522847-.4477153 1-1 1h-1.027c-.9298702-1.2451471-2.3881658-1.9842507-3.9421482-1.9979871s-3.0251156.6994724-3.9768518 1.9279871c-.017.022-.028.048-.044.07h-6.01v-5zm-18.177-10h5.177v5h-7.448zm-1.823 15c-.55228475 0-1-.4477153-1-1v-3h2c.55228475 0 1-.4477153 1-1s-.44771525-1-1-1h-2v-2h9c.5522847 0 1-.4477153 1-1v-7c0-.55228475-.4477153-1-1-1h-5.269l.909-2h7.36v19h-2.026c-.9333405-1.2582223-2.40739603-2.0001147-3.974-2.0001147s-3.04065948.7418924-3.974 2.0001147zm2 3c0-1.6568542 1.34314575-3 3-3s3 1.3431458 3 3-1.34314575 3-3 3-3-1.3431458-3-3zm20.992 5h10.008v4.341c-2.3423991.4940383-4.5627192 1.4503636-6.531 2.813-2.6563322 1.9161616-5.8644026 2.9151953-9.139 2.846-3.2723124.0694282-6.4779015-.9308701-9.13-2.849-2.69431631-1.9208357-5.89323983-3.0084697-9.2-3.128v-4.023zm-23.992 28.03v-10.005c.286.014.565.034.83.061 1.4844687.1180372 2.93829352.4862268 4.3 1.089 1.03603844.4810095 2.03568096 1.0368121 2.991 1.663l.719.444c1.3193504.8497819 2.7458555 1.5203267 4.242 1.994h.01l.018.006c1.7133622.5027071 3.4926124.7447498 5.278.718h.006c2.3603169.0450838 4.7031027-.4137913 6.872-1.346l.026-.013h.006c1.1093831-.5179667 2.1816088-1.1120513 3.209-1.778 1.6353004-1.137974 3.4620976-1.972278 5.393-2.463.036-.009.065-.013.1-.021v2.211c.0009195.5284654.210441 1.0351984.583 1.41l2 2c.7834002.7815671 2.0515998.7815671 2.835 0l2-2c.3726538-.3746574.5818898-.8815693.582-1.41v-2.045c.5714329.1544287 1.1311748.3492523 1.675.583 1.0881085.4958569 2.1373988 1.0728161 3.139 1.726l.581.357c1.3145461.8556412 2.7347903 1.5366861 4.225 2.026h.008.013c1.4149248.4326298 2.880348.6783798 4.359.731v4.032z" fill="#cecece" data-original="#000000" style="" class=""/><path id="Shape" d="m9 18h1c.5522847 0 1-.4477153 1-1s-.4477153-1-1-1h-1c-.55228475 0-1 .4477153-1 1s.44771525 1 1 1z" fill="#cecece" data-original="#000000" style="" class=""/><circle id="Oval" cx="8" cy="33" r="1" fill="#cecece" data-original="#000000" style="" class=""/><circle id="Oval" cx="14" cy="33" r="1" fill="#cecece" data-original="#000000" style="" class=""/><circle id="Oval" cx="17" cy="36" r="1" fill="#cecece" data-original="#000000" style="" class=""/><circle id="Oval" cx="20" cy="33" r="1" fill="#cecece" data-original="#000000" style="" class=""/><circle id="Oval" cx="23" cy="36" r="1" fill="#cecece" data-original="#000000" style="" class=""/><circle id="Oval" cx="26" cy="33" r="1" fill="#cecece" data-original="#000000" style="" class=""/><circle id="Oval" cx="32" cy="33" r="1" fill="#cecece" data-original="#000000" style="" class=""/><circle id="Oval" cx="48" cy="33" r="1" fill="#cecece" data-original="#000000" style="" class=""/><circle id="Oval" cx="54" cy="33" r="1" fill="#cecece" data-original="#000000" style="" class=""/></g></g></g></svg>
