<svg width="110" height="54" viewBox="0 0 110 54" fill="none" xmlns="http://www.w3.org/2000/svg">
<g clip-path="url(#clip0)">
<path d="M64.3759 0.871625C63.9232 1.34567 63.2391 2.06438 62.8482 2.45686C61.6188 3.73117 61.0221 4.34793 59.695 5.73438C58.9852 6.47857 58.1056 7.38588 57.7507 7.75288C57.1025 8.42062 53.7436 11.9173 52.5091 13.212C52.1388 13.5943 51.8199 13.9103 51.7993 13.9052C51.753 13.9001 50.4568 12.427 47.6225 9.1852L46.7018 8.11988L46.4806 8.36455C46.2749 8.58373 44.886 10.0364 43.0703 11.9122C41.8255 13.1967 40.9459 14.1193 34.6447 20.6591C31.2344 24.2067 28.4413 27.1325 28.4259 27.1631C28.4156 27.1988 29.0946 27.2243 30.2777 27.2243H32.1449L37.1292 22.0404C39.8708 19.1911 42.4119 16.5456 42.7874 16.1684C43.1577 15.7861 44.099 14.8074 44.886 13.997C45.6679 13.1865 46.3212 12.5086 46.3469 12.4984C46.4086 12.4678 49.6543 16.0919 49.6286 16.1582C49.608 16.2041 48.2758 17.616 46.6504 19.2981C40.4932 25.6747 39.125 27.107 39.1096 27.1631C39.0993 27.1937 39.8966 27.2192 41.1208 27.2192H43.1577L44.4231 25.9092C45.1227 25.1905 46.316 23.9519 47.0876 23.1567C47.8489 22.3564 49.3406 20.812 50.395 19.7212C51.4444 18.6304 54.4021 15.5516 56.9688 12.8858C59.5304 10.2148 61.9068 7.75288 62.2463 7.40627C62.5858 7.05966 63.3317 6.28488 63.9078 5.6885C64.4787 5.09722 64.9623 4.60279 64.9828 4.61299C65.0034 4.61299 67.8736 8.36964 71.3714 12.9622C74.8692 17.5548 78.1201 21.8161 78.5882 22.438C79.0563 23.0547 80.0747 24.3851 80.8412 25.3944L82.2351 27.2294H86.0312V19.1554L84.4932 19.1656L82.9501 19.186L82.9295 21.128C82.9244 22.1984 82.8935 23.0598 82.8678 23.0497C82.8369 23.0395 82.1065 22.0914 81.2321 20.9496C80.3628 19.8027 79.3032 18.4163 78.8814 17.8607C78.4544 17.3051 77.5697 16.1429 76.9113 15.2764C76.2477 14.4048 75.3219 13.1916 74.8435 12.5647C74.3651 11.9428 73.3621 10.6226 72.6111 9.63375C71.8549 8.64489 69.9517 6.14725 68.3777 4.08797C66.8089 2.0236 65.4664 0.254861 65.3995 0.163111C65.3275 0.0764584 65.2606 0 65.2349 0C65.2143 0.00509722 64.8285 0.397584 64.3759 0.871625Z" fill="#A6935F"/>
<path d="M46.2855 28.0705C45.4059 28.1877 44.5932 28.4222 43.8628 28.7739C43.3587 29.0135 43.1735 29.146 42.7157 29.6048C42.1242 30.1961 41.8772 30.6191 41.6612 31.4092C41.4966 32.0209 41.4915 33.6163 41.6561 34.2127C42.0367 35.594 42.9266 36.5319 44.2948 36.9856C45.1333 37.2608 45.5139 37.3067 47.5817 37.3577C49.6804 37.4137 49.9221 37.4545 50.2925 37.8164C50.6423 38.1681 50.6989 38.3414 50.6989 39.0652C50.6989 39.6208 50.6731 39.7686 50.56 39.9776C50.2925 40.4772 49.8347 40.7983 49.0786 40.9971C48.4973 41.1551 46.5221 41.15 45.6219 40.992C44.9481 40.8696 43.9245 40.5893 43.0552 40.2733C42.6951 40.1458 42.5151 40.1102 42.4945 40.1611C42.4842 40.1968 42.4739 40.9002 42.4842 41.7107L42.5048 43.1889L43.2043 43.3673C44.8452 43.7751 45.982 43.928 47.4634 43.9331C51.2287 43.9433 53.4045 42.6078 53.8263 40.0133C54.1143 38.2497 53.6205 36.5472 52.5609 35.6297C52.1803 35.3035 51.4293 34.9008 50.9252 34.7581C50.1073 34.5236 49.4695 34.4624 47.8801 34.4624C45.7762 34.4624 45.2619 34.335 44.8812 33.7335C44.6858 33.4073 44.6292 32.4541 44.7835 32.0463C44.9172 31.6997 45.2619 31.3582 45.6734 31.1594C46.9902 30.5223 49.989 30.6701 52.3552 31.4805C52.813 31.6386 53.2347 31.7813 53.2965 31.8017C53.3993 31.8323 53.4045 31.7303 53.4045 30.2827V28.7382L53.0753 28.6363C52.4477 28.4579 51.3418 28.2336 50.6063 28.1317C49.5724 27.9889 47.1394 27.9584 46.2855 28.0705Z" fill="#A6935F"/>
<path d="M73.1605 28.0704C69.6782 28.5444 67.6052 30.5222 66.9983 33.9373C66.8131 35.023 66.8131 36.8427 66.9983 37.9437C67.2966 39.6564 67.8418 40.8287 68.8346 41.8482C69.7708 42.8116 70.9435 43.4028 72.5433 43.7189C75.218 44.249 78.0986 43.8055 79.8166 42.6026C81.1951 41.6392 82.0233 40.3037 82.4605 38.3056C82.6302 37.5308 82.6971 35.4308 82.5839 34.4623C82.1519 30.7006 80.0532 28.5495 76.36 28.0602C75.5318 27.9582 73.9887 27.9633 73.1605 28.0704ZM75.8662 30.8433C76.9155 31.0013 77.8157 31.4498 78.3403 32.087C79.0193 32.9128 79.4102 34.2941 79.4102 35.9201C79.4102 37.5767 79.0296 38.9581 78.3352 39.8093C77.4916 40.8491 75.7478 41.3385 73.8344 41.0836C72.7542 40.9409 72.0597 40.6249 71.4322 39.9928C70.8047 39.3709 70.5063 38.7593 70.244 37.592C70.1154 37.0058 70.136 34.763 70.2748 34.1412C70.4806 33.2084 70.8664 32.4336 71.3756 31.929C72.3221 30.9758 74.0247 30.568 75.8662 30.8433Z" fill="#A6935F"/>
<path d="M0.0470819 28.1062C0.0162191 28.1266 -0.00435605 31.3328 0.000787739 35.9865L0.0213629 43.8261L3.42141 43.8464C5.36062 43.8515 7.09922 43.8362 7.45929 43.8006C8.89441 43.6578 9.77914 43.2908 10.5764 42.5008C11.2811 41.8075 11.5795 41.1959 11.7852 40.049C12.0321 38.6269 11.7904 37.3322 11.1165 36.4453C10.9005 36.1598 10.2266 35.5889 10.0363 35.5278C10.0003 35.5176 10.2009 35.2627 10.4941 34.9722C10.8645 34.6001 11.0908 34.3095 11.2297 34.019C11.9498 32.5561 11.8006 30.665 10.8748 29.513C10.5713 29.1308 9.88716 28.6618 9.3162 28.4528C8.43661 28.1164 8.14856 28.1011 3.97694 28.0858C1.84741 28.0756 0.0779446 28.0909 0.0470819 28.1062ZM7.7782 31.0626C8.19999 31.2767 8.38003 31.6182 8.38003 32.184C8.38003 32.7447 8.27715 33.0403 7.94795 33.4022C7.62903 33.7539 6.89347 34.1464 6.18877 34.335C5.60238 34.493 4.73308 34.6561 4.4656 34.6561C4.18784 34.6561 4.17755 34.6918 4.19812 36.012L4.2187 37.0824L5.45835 37.1181C7.12494 37.1742 7.71648 37.3424 8.17942 37.9082C8.42632 38.2038 8.50862 38.5045 8.50862 39.1111C8.50862 40.0694 8.18971 40.6403 7.51587 40.8951C7.19181 41.0124 7.02721 41.0226 5.1703 41.0226H3.16936V30.8689L5.31947 30.8893L7.46957 30.9097L7.7782 31.0626Z" fill="#A6935F"/>
<path d="M17.9524 28.1314C17.9061 28.162 17.3402 29.4567 16.6818 30.9961C14.254 36.7152 13.4052 38.6878 13.2818 38.9579C13.2098 39.116 13.0606 39.4728 12.9372 39.7633C12.8189 40.0538 12.3919 41.0631 11.9856 42.0112C11.5792 42.9542 11.25 43.7544 11.25 43.7901C11.25 43.8207 11.9804 43.8462 12.896 43.8462H14.542L14.6758 43.5607C14.7529 43.4027 14.8095 43.2651 14.8095 43.2447C14.8095 43.2243 15.0358 42.6636 15.3136 41.9959C15.5914 41.3332 16.0492 40.217 16.3372 39.5237C16.615 38.8305 16.8773 38.2086 16.9082 38.1373C16.939 38.0659 17.1602 37.5256 17.402 36.9394C19.3052 32.3213 19.2897 32.3519 19.3618 32.3264C19.3926 32.3213 19.5829 32.7189 19.7835 33.2083C19.979 33.6976 20.3648 34.6253 20.622 35.2624C20.8895 35.8996 21.1055 36.4348 21.1055 36.445C21.1055 36.4552 20.4059 36.4654 19.5521 36.4654C18.3896 36.4654 17.9884 36.4858 17.9421 36.5419C17.8803 36.6234 17.1139 38.8203 17.0522 39.0956L17.0213 39.2383L19.6447 39.2485L22.2783 39.2689L22.7001 40.2781C22.9367 40.8337 23.1579 41.3536 23.1887 41.4454C23.7186 42.7299 24.1249 43.6933 24.1763 43.7595C24.2226 43.8207 24.6444 43.8411 25.9098 43.8411C26.8254 43.8411 27.597 43.8207 27.6073 43.7901C27.6278 43.7646 27.3861 43.1682 27.0774 42.4546C26.2442 40.533 23.7031 34.61 21.8256 30.2315C21.3575 29.1407 20.9563 28.2079 20.9203 28.1671C20.8637 28.0703 18.0707 28.0346 17.9524 28.1314Z" fill="#A6935F"/>
<path d="M28.2141 28.1264C28.1524 28.1978 28.1318 43.5812 28.1935 43.7545C28.2244 43.8412 28.4301 43.8565 29.783 43.8565H31.3364L31.3261 35.9762L31.3055 28.0959L29.7932 28.0857C28.9034 28.0755 28.2501 28.0959 28.2141 28.1264Z" fill="#A6935F"/>
<path d="M38.0095 28.4169C37.814 28.6055 36.3583 30.1296 34.7792 31.8015L31.9141 34.8394V36.4603L38.2358 43.8564H40.355C42.1399 43.8564 42.4743 43.8462 42.4743 43.7698C42.4743 43.7188 42.4486 43.6678 42.4228 43.6576C42.392 43.6474 41.1112 42.21 39.5732 40.4566C38.0403 38.7031 36.4457 36.8987 36.0394 36.4298L35.2935 35.5785L35.5867 35.2625C35.9108 34.9159 37.0681 33.7129 40.3293 30.3284C41.4764 29.1458 42.4074 28.157 42.4074 28.1213C42.4074 28.0958 41.4969 28.0703 40.391 28.0703H38.3695L38.0095 28.4169Z" fill="#A6935F"/>
<path d="M54.3823 28.1318C54.3617 28.1674 54.3617 28.7944 54.372 29.5182L54.3926 30.8435L59.989 30.9046L59.9993 37.3017C60.0096 40.8187 60.0199 43.7344 60.0199 43.7802C60.0199 43.8414 60.3594 43.8567 61.599 43.8414L63.1679 43.821L63.1884 37.3475L63.1987 30.869L65.4774 30.8588L67.7458 30.8384V28.0961L61.0744 28.0757C56.5632 28.0757 54.3926 28.091 54.3823 28.1318Z" fill="#A6935F"/>
<path d="M83.12 28.1315C83.1097 28.1621 83.0994 31.7098 83.1097 36.0067L83.1303 43.8208L84.6426 43.8412C85.8257 43.8513 86.1497 43.8411 86.1497 43.78C86.1497 43.7341 86.1497 41.3792 86.1497 38.5502C86.1497 34.4317 86.16 33.4071 86.2269 33.4326C86.2732 33.4581 88.0684 35.8028 90.2287 38.6471L94.1432 43.8208H96.9928V28.0958H95.5166C94.7038 28.0958 94.0043 28.1009 93.9734 28.1009C93.9271 28.1009 93.9168 29.7881 93.922 33.2338C93.9323 36.6592 93.922 38.3667 93.8757 38.3667C93.8397 38.3667 93.7728 38.3107 93.7317 38.2342C93.6854 38.1628 93.027 37.2912 92.2605 36.3024C91.4993 35.3084 90.1362 33.5244 89.2257 32.3469C88.3204 31.1644 87.2351 29.7473 86.8184 29.1968C86.3966 28.6565 86.0365 28.1825 86.016 28.1519C85.9645 28.0703 83.1457 28.05 83.12 28.1315Z" fill="#A6935F"/>
<path d="M98.3192 28.1318C98.309 28.1623 98.2987 31.71 98.3089 36.007L98.3295 43.821H109.265V41.0481L105.371 41.0277L101.472 41.0175V37.2354L105.114 37.2252L108.751 37.2048V34.4931L105.114 34.4727L101.472 34.4625V30.869H109.101L109.09 29.4825L109.07 28.0961L103.705 28.0757C100.171 28.0757 98.3295 28.091 98.3192 28.1318Z" fill="#A6935F"/>
<path d="M44.2461 48.3316C43.7112 48.5559 43.0682 49.1268 42.7853 49.6314C42.703 49.7843 42.5744 50.1921 42.5127 50.5438C42.24 51.9609 42.9242 53.3065 44.1432 53.7806C44.6679 53.9743 45.7533 54.0303 46.458 53.8978L47.0906 53.7704L47.1215 53.1995C47.1524 52.6847 47.1318 52.6388 46.962 52.6949C45.6555 53.1689 44.4467 52.8427 44.0249 51.9201C43.8038 51.4358 43.8346 50.498 44.0867 50.0392C44.3284 49.5957 44.9097 49.2135 45.4755 49.1268C45.8253 49.0707 46.5145 49.1574 46.9569 49.3205C47.1164 49.3715 47.1369 49.3001 47.1369 48.7955C47.1369 48.1074 47.1266 48.0972 45.7172 48.0972C44.9508 48.1023 44.6782 48.1481 44.2461 48.3316Z" fill="#666666"/>
<path d="M49.7099 48.3317C48.6348 48.7854 48.0484 49.7742 48.0587 51.1046C48.069 52.8581 49.2058 53.954 50.9855 53.954C52.7859 53.954 53.9844 52.7612 53.9844 50.9619C53.9844 49.759 53.3723 48.7548 52.3744 48.3062C51.7057 48.0055 50.4352 48.0208 49.7099 48.3317ZM51.8651 49.3512C52.3384 49.6621 52.5595 50.2024 52.5595 51.0587C52.5595 51.9202 52.3795 52.328 51.8446 52.695C51.4331 52.9753 50.6358 52.9753 50.2346 52.695C49.6687 52.3076 49.5196 52.017 49.4784 51.2422C49.4167 50.126 49.8025 49.392 50.574 49.1677C50.9701 49.0504 51.5514 49.1371 51.8651 49.3512Z" fill="#666666"/>
<path d="M62.8715 48.2857C61.7451 48.7496 61.4313 49.9525 62.1977 50.7681C62.3777 50.9516 62.8715 51.2523 63.3242 51.446C64.3118 51.8844 64.5021 52.0271 64.5021 52.3686C64.5021 52.7968 64.1524 53.0006 63.4065 53.0006C62.9127 53.0006 62.6504 52.9446 62.2697 52.7407L61.7656 52.4807V53.699L62.2697 53.8366C63.067 54.0507 64.3633 53.9997 64.9651 53.7295C65.7521 53.3829 66.1019 52.6744 65.8704 51.8895C65.7006 51.3288 65.3972 51.0484 64.3427 50.5438C63.7203 50.2532 63.3448 50.0086 63.2368 49.8353C63.0876 49.5855 63.0979 49.5549 63.3756 49.3001C63.6277 49.0656 63.746 49.0299 64.2707 49.0401C64.5947 49.0503 65.0474 49.1166 65.2686 49.2032L65.6595 49.3561V48.7954C65.6595 48.2449 65.6492 48.2245 65.3354 48.1634C64.6359 48.0308 63.2985 48.1022 62.8715 48.2857Z" fill="#666666"/>
<path d="M85.7051 48.3316C85.1702 48.5559 84.5272 49.1268 84.2443 49.6314C84.162 49.7843 84.0334 50.1921 83.9717 50.5438C83.699 51.9609 84.3832 53.3065 85.6022 53.7806C86.1269 53.9743 87.2122 54.0303 87.9169 53.8978L88.5496 53.7704L88.5805 53.1995C88.6114 52.6847 88.5908 52.6388 88.421 52.6949C87.1145 53.1689 85.9057 52.8427 85.4839 51.9201C85.2627 51.4358 85.2936 50.498 85.5457 50.0392C85.7874 49.5957 86.3687 49.2135 86.9345 49.1268C87.2843 49.0707 87.9735 49.1574 88.4159 49.3205C88.5753 49.3715 88.5959 49.3001 88.5959 48.7955C88.5959 48.1074 88.5856 48.0972 87.1762 48.0972C86.4098 48.1023 86.132 48.1481 85.7051 48.3316Z" fill="#666666"/>
<path d="M99.0536 48.3317C97.9786 48.7854 97.3922 49.7742 97.4025 51.1046C97.4128 52.8581 98.5495 53.954 100.329 53.954C102.13 53.954 103.328 52.7612 103.328 50.9619C103.328 49.759 102.716 48.7548 101.718 48.3062C101.055 48.0055 99.7841 48.0208 99.0536 48.3317ZM101.214 49.3512C101.687 49.6621 101.908 50.2024 101.908 51.0587C101.908 51.9202 101.728 52.328 101.193 52.695C100.782 52.9753 99.9847 52.9753 99.5834 52.695C99.0176 52.3076 98.8685 52.017 98.8273 51.2422C98.7656 50.126 99.1514 49.392 99.9229 49.1677C100.319 49.0504 100.895 49.1371 101.214 49.3512Z" fill="#666666"/>
<path d="M55.0337 51.0534V53.9129H56.294L56.3145 51.8689L56.3454 49.8351L57.7651 51.8689L59.1848 53.9129H60.5016V48.1989H59.2259L59.2568 50.1359C59.2773 51.2012 59.2671 52.0728 59.2362 52.0728C59.2053 52.0728 58.5932 51.2114 57.868 50.1563L56.5409 48.2499L55.0234 48.1938V51.0534H55.0337Z" fill="#666666"/>
<path d="M66.498 48.6835V49.1677H68.1801V53.9132H69.5483V49.1677H71.3384V48.1992H66.498V48.6835Z" fill="#666666"/>
<path d="M72.1816 51.0536V53.9131H73.5499V52.7969C73.5499 51.6806 73.5499 51.6806 73.8019 51.6806C74.2649 51.6806 74.3832 51.7876 75.0879 52.8529L75.772 53.908H76.5076C76.9088 53.908 77.2328 53.8877 77.2328 53.8673C77.2328 53.7195 75.7823 51.7264 75.5405 51.5327L75.2371 51.2983L75.4685 51.181C76.2247 50.8344 76.6979 50.0596 76.5436 49.4174C76.3121 48.3929 75.8594 48.1992 73.7454 48.189H72.1868V51.0536H72.1816ZM74.7381 49.1778C75.0622 49.3409 75.129 49.448 75.129 49.8761C75.129 50.4266 74.769 50.7172 74.0746 50.7172H73.5499V49.0708H74.0334C74.2957 49.0708 74.6095 49.1167 74.7381 49.1778Z" fill="#666666"/>
<path d="M77.7775 50.2536C77.8083 52.0631 77.8392 52.3639 78.0295 52.7513C78.5027 53.6993 79.5675 54.1479 80.8483 53.9338C81.6713 53.786 82.196 53.4598 82.4995 52.8787C82.7412 52.4403 82.7515 52.2976 82.7824 50.2995L82.8132 48.1994H81.5427V49.9733C81.5427 50.9417 81.5016 51.8796 81.4399 52.0631C81.2187 52.7818 80.5448 53.0877 79.8196 52.8073C79.1972 52.5627 79.1251 52.2823 79.1251 50.0854V48.1943H77.7363L77.7775 50.2536Z" fill="#666666"/>
<path d="M89.2285 48.6835V49.1677H90.9105V53.9132H92.2788V49.1677H94.0688V48.1992H89.2285V48.6835Z" fill="#666666"/>
<path d="M94.4902 48.6322C94.4902 49.0298 94.5108 49.0706 94.7526 49.0706H95.0149V52.9445H94.7526C94.5108 52.9445 94.4902 52.975 94.4902 53.4287V53.9129H96.8049V53.4287C96.8049 53.0107 96.7741 52.9445 96.594 52.9445C96.3934 52.9445 96.3832 52.8782 96.3832 51.0075C96.3832 49.1368 96.3934 49.0706 96.594 49.0706C96.7741 49.0706 96.8049 49.0043 96.8049 48.6322V48.1938H94.4902V48.6322Z" fill="#666666"/>
<path d="M104.485 51.0534V53.9129H105.745L105.766 51.8689L105.797 49.8351L107.216 51.8689L108.636 53.9129H109.953V48.1989H108.677L108.708 50.1359C108.729 51.2012 108.718 52.0728 108.687 52.0728C108.657 52.0728 108.044 51.2114 107.319 50.1563L105.992 48.2499L104.475 48.1938V51.0534H104.485Z" fill="#666666"/>
</g>
<defs>
<clipPath id="clip0">
<rect width="110" height="54" fill="white"/>
</clipPath>
</defs>
</svg>
