<?xml version="1.0"?>
<svg xmlns="http://www.w3.org/2000/svg" xmlns:xlink="http://www.w3.org/1999/xlink" xmlns:svgjs="http://svgjs.com/svgjs" version="1.1" width="512" height="512" x="0" y="0" viewBox="0 0 64 64" style="enable-background:new 0 0 512 512" xml:space="preserve" class=""><g><title xmlns="http://www.w3.org/2000/svg">demolition-crane-truck-construction-transportation</title><g xmlns="http://www.w3.org/2000/svg" id="Expand"><rect x="2" y="60" width="2" height="2" fill="#cecece" data-original="#000000" style="" class=""/><path d="M51,35a1,1,0,0,0-1,1v3.525a9,9,0,1,0,6,0V36a1,1,0,0,0-1-1H54V17.414l2.707-2.707a1,1,0,0,0,0-1.414l-7-7a1,1,0,0,0-1.414,0l-2.93,2.93L21.7,25H14a1,1,0,0,0-1,1v9H12a1,1,0,0,0-1,1v8.427A10.914,10.914,0,0,0,5.2,48.4l1.6,1.2a9.037,9.037,0,0,1,1.145-1.243L9.36,49.774A6.971,6.971,0,0,0,9.111,60H6v2H62V60H34.889a6.971,6.971,0,0,0-.249-10.226l1.416-1.416A9.153,9.153,0,0,1,37.2,49.6l1.6-1.2A10.917,10.917,0,0,0,33,44.427V40a1,1,0,0,0-.923-1L29,38.766V35.428L49.984,15.4,52,17.414V35ZM49,8.414,54.586,14,53,15.586,47.414,10ZM15,27h3v8H15ZM35,55a5.006,5.006,0,0,1-5,5H14a5,5,0,0,1,0-10H30A5.006,5.006,0,0,1,35,55Zm-2.067-6.347A6.943,6.943,0,0,0,30,48H14a6.943,6.943,0,0,0-2.933.653L9.581,47.167A8.95,8.95,0,0,1,14,46H30a8.941,8.941,0,0,1,4.419,1.168ZM31,44.057c-.331-.029-.663-.057-1-.057H14c-.337,0-.669.028-1,.057V37h5v2a1,1,0,0,0,.923,1L31,40.926ZM20,38.074V27h2a5.006,5.006,0,0,1,5,5v6.612Zm4.563-12.581,9.31-6.206,4.464,4.464L29,32.663V32A7.007,7.007,0,0,0,24.563,25.493Zm15.221-3.124L35.57,18.155l10.3-6.868,2.7,2.7ZM60,48a7,7,0,1,1-7-7A7.009,7.009,0,0,1,60,48Zm-7-9a8.935,8.935,0,0,0-1,.059V37h2v2.059A8.935,8.935,0,0,0,53,39Z" fill="#cecece" data-original="#000000" style="" class=""/><path d="M30,52a3,3,0,1,0,3,3A3,3,0,0,0,30,52Zm0,4a1,1,0,1,1,1-1A1,1,0,0,1,30,56Z" fill="#cecece" data-original="#000000" style="" class=""/><path d="M22,52a3,3,0,1,0,3,3A3,3,0,0,0,22,52Zm0,4a1,1,0,1,1,1-1A1,1,0,0,1,22,56Z" fill="#cecece" data-original="#000000" style="" class=""/><path d="M14,52a3,3,0,1,0,3,3A3,3,0,0,0,14,52Zm0,4a1,1,0,1,1,1-1A1,1,0,0,1,14,56Z" fill="#cecece" data-original="#000000" style="" class=""/><rect x="25.486" y="12" width="18.028" height="2" transform="translate(-1.417 21.321) rotate(-33.69)" fill="#cecece" data-original="#000000" style="" class=""/><rect x="22.798" y="19" width="2.404" height="2" transform="translate(-7.064 16.679) rotate(-33.703)" fill="#cecece" data-original="#000000" style="" class=""/></g></g></svg>
